<svg xmlns="http://www.w3.org/2000/svg" viewBox="0 20 260 260" width="260" height="260">
	<defs>
		<clipPath clipPathUnits="userSpaceOnUse" id="cp1">
			<path d="M-185 -129L481.67 -129L481.67 537.67L-185 537.67L-185 -129Z" />
		</clipPath>
	</defs>
	<style>
		tspan { white-space:pre }
		.shp0 { fill: none;stroke: #00652e;stroke-linecap:round;stroke-width: 6.812 }
		.shp1 { fill: none;stroke: #94aa24;stroke-linecap:round;stroke-width: 6.812 }
	</style>
	<g id="g10">
		<g id="g14">
			<g id="Clip-Path: g16" clip-path="url(#cp1)">
				<g id="g16">
					<g id="g22">
						<path id="path24" class="shp0" d="M4.83 78.09L29.64 78.09C40.67 78.09 50.55 84.93 54.44 95.25L89.61 188.61L208.57 188.61C216.17 188.61 222.9 183.71 225.23 176.47L242.52 122.75" />
					</g>
					<g id="g26">
						<path id="path28" class="shp0" d="M89.61 188.61L94.93 202.65C98.33 211.62 106.93 217.55 116.52 217.55L211.85 217.55" />
					</g>
					<g id="g30">
						<path id="path32" class="shp0" d="M137.77 227.31C137.77 232.48 133.58 236.68 128.41 236.68C123.23 236.68 119.04 232.48 119.04 227.31C119.04 222.14 123.23 217.94 128.41 217.94C133.58 217.94 137.77 222.14 137.77 227.31Z" />
					</g>
					<g id="g34">
						<path id="path36" class="shp0" d="M194.19 227.31C194.19 232.48 189.99 236.68 184.82 236.68C179.65 236.68 175.45 232.48 175.45 227.31C175.45 222.14 179.65 217.94 184.82 217.94C189.99 217.94 194.19 222.14 194.19 227.31Z" />
					</g>
					<g id="g38">
						<path id="path40" class="shp1" d="M156.37 140.73C143.88 128.24 147.71 104.15 174.84 77.03C201.96 49.91 254.59 42.51 254.59 42.51C254.59 42.51 247.19 95.14 220.07 122.26C199.73 142.6 181.09 149.84 167.78 146.92" />
					</g>
					<g id="g42">
						<path id="path44" class="shp1" d="M156.37 140.73L232.38 64.72" />
					</g>
					<g id="g46">
						<path id="path48" class="shp1" d="M175.97 121.12L175.97 99.78" />
					</g>
					<g id="g50">
						<path id="path52" class="shp1" d="M195.04 102.05L212.64 102.05" />
					</g>
					<g id="g54">
						<path id="path56" class="shp1" d="M213.71 83.39L213.71 71.68" />
					</g>
					<g id="g58">
						<path id="path60" class="shp1" d="M136.57 142.62C145.08 134.11 142.47 117.7 123.98 99.21C105.5 80.73 69.63 75.68 69.63 75.68C69.63 75.68 74.67 111.55 93.16 130.04C107.02 143.9 119.72 148.84 128.79 146.85" />
					</g>
					<g id="g62">
						<path id="path64" class="shp1" d="M136.57 142.62L84.77 90.82" />
					</g>
					<g id="g66">
						<path id="path68" class="shp1" d="M123.21 129.26L123.21 114.72" />
					</g>
					<g id="g70">
						<path id="path72" class="shp1" d="M110.21 116.27L98.22 116.27" />
					</g>
					<g id="g74">
						<path id="path76" class="shp0" d="M89.61 188.61L75.61 188.61" />
					</g>
					<g id="g78">
						<path id="path80" class="shp0" d="M82.61 170.02L227.04 170.02" />
					</g>
				</g>
			</g>
		</g>
	</g>
</svg>